<?xml version="1.0" encoding="utf-8"?>
<!-- Generator: Adobe Illustrator 16.0.0, SVG Export Plug-In . SVG Version: 6.00 Build 0)  -->
<!DOCTYPE svg PUBLIC "-//W3C//DTD SVG 1.1//EN" "http://www.w3.org/Graphics/SVG/1.1/DTD/svg11.dtd" [
    <!ENTITY ns_extend "http://ns.adobe.com/Extensibility/1.0/">
    <!ENTITY ns_ai "http://ns.adobe.com/AdobeIllustrator/10.0/">
    <!ENTITY ns_graphs "http://ns.adobe.com/Graphs/1.0/">
    <!ENTITY ns_vars "http://ns.adobe.com/Variables/1.0/">
    <!ENTITY ns_imrep "http://ns.adobe.com/ImageReplacement/1.0/">
    <!ENTITY ns_sfw "http://ns.adobe.com/SaveForWeb/1.0/">
    <!ENTITY ns_custom "http://ns.adobe.com/GenericCustomNamespace/1.0/">
    <!ENTITY ns_adobe_xpath "http://ns.adobe.com/XPath/1.0/">
]>
<svg version="1.1" id="Layer_1" xmlns:x="&ns_extend;" xmlns:i="&ns_ai;" xmlns:graph="&ns_graphs;"
     xmlns="http://www.w3.org/2000/svg" xmlns:xlink="http://www.w3.org/1999/xlink" x="0px" y="0px" width="578.919px"
     height="118.918px" viewBox="0 0 578.919 118.918" enable-background="new 0 0 578.919 118.918" xml:space="preserve">
<metadata>
    <sfw  xmlns="&ns_sfw;">
        <slices></slices>
        <sliceSourceBounds  y="-465.02" x="30.424" height="87.281" width="532.434" bottomLeftOrigin="true"></sliceSourceBounds>
    </sfw>
</metadata>
<g>
    <path fill="#F9B233" d="M133.64,74.035c0,8.271-3.22,16.04-9.07,21.89c-5.13,5.141-11.94,8.311-19.17,8.95l-0.2,0.01v-0.189
        c-0.1-2.67-0.24-5.35-0.4-8.1c-0.19-3.351,0.32-20.19,0.33-20.36c0.08-1.86,0.22-3.771,0.43-5.83c0.13-1.271,0.32-2.37,0.56-3.36
        c0.24-1.01,0.84-1.859,1.83-2.62c1.91-1.449,3-3.24,3.35-5.459c0.39-2.5,0.36-5.08,0.34-7.58v-0.43c-0.02-1.82-0.08-3.66-0.13-5.39
        c-0.05-1.38-0.13-2.79-0.2-4.15c-0.03-0.58-0.06-1.17-0.09-1.76l-0.1-1.74c0-0.18-0.06-0.29-0.33-0.3c-0.01,0-0.01,0-0.01,0
        c-0.21,0-0.24,0.06-0.26,0.26c-0.18,2.21-0.25,4.46-0.31,6.64l-0.05,1.55c-0.01,0.44-0.03,0.89-0.06,1.33
        c-0.02,0.5-0.05,0.99-0.06,1.49c-0.04,1.62-0.12,3.27-0.19,4.86c-0.03,0.58-0.06,1.17-0.08,1.75c-0.01,0.16-0.02,0.31-0.07,0.45
        c-0.07,0.2-0.25,0.43-0.75,0.43h-0.08c-0.43-0.02-0.71-0.22-0.76-0.55c-0.04-0.24-0.06-0.49-0.05-0.74
        c0.04-0.82,0.07-1.63,0.1-2.45c0.06-1.27,0.11-2.55,0.15-3.82c0.08-2.51,0.15-5.01,0.21-7.52v-0.35c0.02-0.82,0.03-1.64,0.04-2.46
        v-0.43c0-0.19-0.02-0.34-0.05-0.48c-0.03-0.13-0.19-0.15-0.28-0.15c-0.1,0-0.26,0.02-0.29,0.13c-0.03,0.09-0.04,0.18-0.04,0.28
        l-0.01,0.05c-0.42,4.2-0.75,8.47-1.07,12.6c-0.12,1.56-0.24,3.13-0.37,4.69c-0.01,0.13-0.02,0.27-0.04,0.4
        c-0.04,0.39-0.38,0.62-0.88,0.58c-0.48-0.04-0.8-0.29-0.82-0.67c-0.01-0.1,0-0.2,0.01-0.31v-0.08l0.65-8.34l-0.02-0.19l0.06-0.76
        c0.2-2.55,0.4-5.1,0.6-7.65c0.01-0.14,0-0.28,0-0.42c0-0.09-0.01-0.18,0-0.27c0-0.06,0-0.21-0.31-0.23
        c-0.19-0.02-0.27,0.03-0.3,0.2c-0.03,0.21-0.07,0.42-0.11,0.64c-0.08,0.42-0.16,0.86-0.22,1.3c-0.27,2.08-0.53,4.17-0.78,6.26
        l-0.1,0.77c-0.36,2.89-0.72,5.78-1.07,8.67c-0.02,0.15-0.06,0.34-0.21,0.51c-0.22,0.24-0.53,0.33-0.92,0.25
        c-0.38-0.08-0.6-0.3-0.6-0.62c-0.01-0.23,0.02-0.46,0.04-0.68c0.31-2.62,0.61-5.23,0.92-7.83l0.12-1.03
        c0.13-1.15,0.27-2.34,0.43-3.51c0.21-1.58,0.35-3.17,0.49-4.8c0.02-0.26,0.01-0.31-0.2-0.34c-0.24-0.02-0.36,0.05-0.41,0.31
        c-0.19,0.92-0.38,1.83-0.57,2.74c-0.4,1.88-0.81,3.81-1.17,5.72c-0.51,2.68-1.03,5.56-1.42,8.46c-0.27,1.98-0.32,3.6-0.16,5.11
        c0.14,1.3,0.68,2.52,1.59,3.63c0.11,0.14,0.22,0.271,0.32,0.41c0.25,0.31,0.51,0.64,0.8,0.94c0.9,0.949,1.06,2.02,1.09,2.939
        c0.12,3-0.16,5.93-0.47,8.67c-0.02,0.17-2.05,16.65-2.74,19.811c-0.54,2.5-1.11,5.229-1.79,8.619l-0.06,0.28l-0.17-0.02
        c-6.57-1-12.54-4.011-17.25-8.721c-5.84-5.85-9.07-13.619-9.07-21.89c0-8.27,3.23-16.05,9.07-21.9c4.58-4.57,10.36-7.55,16.72-8.62
        l1.05-7.32c0.18-1.22,1.32-2.25,2.56-2.29l4.88,0.32c-0.14-0.88-0.26-2.71,0.68-4.7c1-2.12,2.85-3.7,5.49-4.68l0.11-0.03
        c0.7-0.19,1.4-0.29,2.07-0.29c4.16,0,7.17,3.57,9.82,6.71c2.19,2.61,4.26,5.05,6.41,4.92l0.18-0.01l0.17,2.58l-0.18,0.01
        c-3.45,0.22-6.05-2.86-8.56-5.83c-2.5-2.98-4.87-5.79-7.88-5.79c-0.43,0-0.86,0.06-1.3,0.17c-2.33,0.88-3.78,2.28-4.3,4.17
        c-0.39,1.45-0.1,2.69-0.09,2.7l0.04,0.18l-0.2,0.05l4.81,0.32h0.05c1.22,0,2.21,0.99,2.22,2.2l-0.57,8.71
        c3.6,1.55,6.83,3.75,9.61,6.52C130.42,57.985,133.64,65.765,133.64,74.035z"/>
</g>
<g>
    <path fill="#F9B233" d="M66.774,33.213c-1.226-0.558-3.122-1.115-6.133-1.115c-2.453,0-3.568,1.896-3.568,5.91v9.478H67.22v14.495
        H57.073V88.63h6.69v14.607H30.535V88.63h4.46V61.981h-4.571V47.486h4.571v-9.478c0-6.356,2.007-20.405,22.078-20.405
        c5.799,0,13.492,1.337,16.392,2.788L66.774,33.213z"/>
    <path fill="#F9B233" d="M169.021,103.238h-31.556V88.63h4.906V61.981h-4.794V47.486h20.962l3.345,7.136
        c2.899-5.352,5.798-9.923,17.283-9.923v20.07c-10.035,0-15.722,2.564-15.722,12.377V88.63h5.575V103.238z"/>
    <path fill="#F9B233" d="M185.076,103.238V88.742h4.571V34.217h-4.571V19.61h25.757v50.399l12.935-7.693h-8.028V47.597h31.221
        v14.719h-8.586l-7.582,4.795l15.053,21.52h5.575v14.607h-33.005V88.63h4.683l-8.475-12.042l-3.903,2.676v9.366h4.126v14.607
        H185.076z"/>
    <path fill="#F9B233" d="M257.218,103.238V88.742h4.683V34.217h-4.683V19.61h26.984v32.225c2.453-2.899,9.143-5.241,14.607-5.241
        c16.948,0,25.979,14.272,25.646,29.214c-0.334,17.172-10.035,28.656-25.757,28.656c-8.475,0-11.597-2.342-14.719-5.018
        l-1.672,3.791H257.218z M291.896,62.316c-4.349,0-8.363,5.463-7.917,14.272c0,7.583,3.792,13.38,8.029,13.38
        c4.683,0,7.916-5.463,7.916-13.938C299.924,69.341,296.802,62.316,291.896,62.316z"/>
    <path fill="#F9B233" d="M328.134,75.138c0.111-18.621,15.165-28.99,30.552-28.99c17.618,0.223,30.663,10.816,30.998,29.437
        c0.223,18.51-13.492,29.103-30.44,29.103C343.299,104.687,327.91,94.875,328.134,75.138z M366.825,75.584
        c0-8.362-2.899-14.83-8.14-14.941c-4.349,0-7.693,6.468-7.693,14.606c0,9.145,3.568,15.165,8.251,15.165
        C364.037,90.415,366.825,83.948,366.825,75.584z"/>
    <path fill="#F9B233" d="M426.815,103.238h-33.119V88.63h4.686V62.316h-4.686V47.597h21.076l2.452,6.579
        c1.784-2.118,6.915-8.14,13.938-8.14c11.263,0,14.83,5.352,16.613,8.028c3.456-3.903,8.698-8.028,16.391-8.028
        c18.065,0,20.853,13.158,20.853,26.76v15.389h5.463v15.053H462.16V75.919c0-5.352,1.004-13.827-4.236-13.827
        c-4.793,0-5.908,3.345-5.908,8.141v18.063h6.688v14.941h-28.879V74.804c0-9.032-0.223-12.712-4.683-12.712
        c-3.569,0-5.02,2.119-5.02,6.69V88.63h6.692V103.238z"/>
    <path fill="#F9B233" d="M495.61,103.238V88.742h4.683V34.217h-4.683V19.61h26.984v32.225c2.453-2.899,9.145-5.241,14.607-5.241
        c16.948,0,25.98,14.272,25.646,29.214c-0.335,17.172-10.036,28.656-25.758,28.656c-8.476,0-11.598-2.342-14.719-5.018l-1.672,3.791
        H495.61z M530.287,62.316c-4.348,0-8.361,5.463-7.915,14.272c0,7.583,3.79,13.38,8.026,13.38c4.686,0,7.918-5.463,7.918-13.938
        C538.316,69.341,535.195,62.316,530.287,62.316z"/>
</g>
</svg>